<?xml version="1.0" encoding="utf-8"?>
<!-- Generator: Adobe Illustrator 23.0.6, SVG Export Plug-In . SVG Version: 6.00 Build 0)  -->
<svg version="1.1" baseProfile="tiny" xmlns="http://www.w3.org/2000/svg" xmlns:xlink="http://www.w3.org/1999/xlink" x="0px"
	 y="0px" viewBox="0 0 460 119.4" xml:space="preserve">
<g id="Layer_1">
</g>
<g id="Layer_2">
	<g>
		<g>
			<path fill="none" stroke="#FF0066" stroke-width="10" stroke-linejoin="round" stroke-miterlimit="10" d="M230.1,109.8
				c0,0-0.1,0-0.1,0c-0.6,0-1.1-0.2-1.6-0.5c-1.6-1.1-38.8-27.6-52.5-50c0,0,0-0.1-0.1-0.1c-3.1-5.1-4.7-10.9-4.7-16.9
				c0-18,14.7-32.7,32.7-32.7c10.4,0,20.1,5,26.2,13.2c6.1-8.2,15.8-13.2,26.2-13.2c18,0,32.7,14.7,32.7,32.7c0,6-1.6,11.8-4.7,16.9
				c0,0,0,0.1-0.1,0.1c-13.7,22.4-50.9,48.9-52.5,50C231.2,109.6,230.6,109.8,230.1,109.8z"/>
		</g>
	</g>
	<g>
		<path fill="#FFFFFF" d="M316.6,38.2c-1.1,0-2-0.9-2-2V12.7c0-1.1,0.9-2,2-2c1.1,0,2,0.9,2,2v23.5
			C318.5,37.3,317.7,38.2,316.6,38.2z"/>
		<path fill="#FFFFFF" d="M360.7,38.2c-1.1,0-2-0.9-2-2V12.7c0-1.1,0.9-2,2-2c1.1,0,2,0.9,2,2v23.5
			C362.6,37.3,361.7,38.2,360.7,38.2z"/>
		<path fill="#FFFFFF" d="M338.6,38.2c-4.2,0-7.7-3.5-7.7-7.7v-12c0-4.2,3.5-7.7,7.7-7.7s7.7,3.5,7.7,7.7v12
			C346.3,34.7,342.9,38.2,338.6,38.2z M338.6,14.7c-2.1,0-3.8,1.7-3.8,3.8v12c0,2.1,1.7,3.8,3.8,3.8s3.8-1.7,3.8-3.8v-12
			C342.4,16.4,340.7,14.7,338.6,14.7z"/>
		<path fill="#FFFFFF" d="M404.7,38.2c-4.2,0-7.7-3.5-7.7-7.7v-12c0-4.2,3.5-7.7,7.7-7.7c4.2,0,7.7,3.5,7.7,7.7v12
			C412.4,34.7,409,38.2,404.7,38.2z M404.7,14.7c-2.1,0-3.8,1.7-3.8,3.8v12c0,2.1,1.7,3.8,3.8,3.8s3.8-1.7,3.8-3.8v-12
			C408.5,16.4,406.8,14.7,404.7,14.7z"/>
		<path fill="#FFFFFF" d="M382.7,38.2c-4.2,0-7.7-3.5-7.7-7.7v-12c0-4.2,3.5-7.7,7.7-7.7c4.2,0,7.7,3.5,7.7,7.7v12
			C390.4,34.7,386.9,38.2,382.7,38.2z M382.7,14.7c-2.1,0-3.8,1.7-3.8,3.8v12c0,2.1,1.7,3.8,3.8,3.8s3.8-1.7,3.8-3.8v-12
			C386.5,16.4,384.8,14.7,382.7,14.7z"/>
		<path fill="#FFFFFF" d="M426,38.2c-1.1,0-2-0.9-2-2V12.7c0-1.1,0.9-2,2-2c1.1,0,2,0.9,2,2v23.5C428,37.3,427.1,38.2,426,38.2z"/>
		<path fill="#FFFFFF" d="M448.1,38.2c-4.2,0-7.7-3.5-7.7-7.7v-12c0-4.2,3.5-7.7,7.7-7.7c4.2,0,7.7,3.5,7.7,7.7v12
			C455.8,34.7,452.3,38.2,448.1,38.2z M448.1,14.7c-2.1,0-3.8,1.7-3.8,3.8v12c0,2.1,1.7,3.8,3.8,3.8s3.8-1.7,3.8-3.8v-12
			C451.9,16.4,450.2,14.7,448.1,14.7z"/>
		<path fill="#FFFFFF" d="M426,108.6c-1.1,0-2-0.9-2-2V83.2c0-1.1,0.9-2,2-2c1.1,0,2,0.9,2,2v23.5C428,107.7,427.1,108.6,426,108.6z
			"/>
		<path fill="#FFFFFF" d="M448.1,108.6c-4.2,0-7.7-3.5-7.7-7.7v-12c0-4.2,3.5-7.7,7.7-7.7c4.2,0,7.7,3.5,7.7,7.7v12
			C455.8,105.1,452.3,108.6,448.1,108.6z M448.1,85.1c-2.1,0-3.8,1.7-3.8,3.8v12c0,2.1,1.7,3.8,3.8,3.8s3.8-1.7,3.8-3.8v-12
			C451.9,86.8,450.2,85.1,448.1,85.1z"/>
		<path fill="#FFFFFF" d="M410.5,73.4c-1.1,0-2-0.9-2-2V48c0-1.1,0.9-2,2-2s2,0.9,2,2v23.5C412.4,72.5,411.6,73.4,410.5,73.4z"/>
		<path fill="#FFFFFF" d="M366.4,73.4c-1.1,0-2-0.9-2-2V48c0-1.1,0.9-2,2-2c1.1,0,2,0.9,2,2v23.5C368.4,72.5,367.5,73.4,366.4,73.4z
			"/>
		<path fill="#FFFFFF" d="M388.4,73.4c-4.2,0-7.7-3.5-7.7-7.7v-12c0-4.2,3.5-7.7,7.7-7.7c4.2,0,7.7,3.5,7.7,7.7v12
			C396.1,69.9,392.7,73.4,388.4,73.4z M388.4,49.9c-2.1,0-3.8,1.7-3.8,3.8v12c0,2.1,1.7,3.8,3.8,3.8c2.1,0,3.8-1.7,3.8-3.8v-12
			C392.2,51.6,390.5,49.9,388.4,49.9z"/>
		<path fill="#FFFFFF" d="M322.3,73.4c-4.2,0-7.7-3.5-7.7-7.7v-12c0-4.2,3.5-7.7,7.7-7.7c4.2,0,7.7,3.5,7.7,7.7v12
			C330,69.9,326.6,73.4,322.3,73.4z M322.3,49.9c-2.1,0-3.8,1.7-3.8,3.8v12c0,2.1,1.7,3.8,3.8,3.8c2.1,0,3.8-1.7,3.8-3.8v-12
			C326.1,51.6,324.4,49.9,322.3,49.9z"/>
		<path fill="#FFFFFF" d="M344.4,73.4c-4.2,0-7.7-3.5-7.7-7.7v-12c0-4.2,3.5-7.7,7.7-7.7s7.7,3.5,7.7,7.7v12
			C352.1,69.9,348.6,73.4,344.4,73.4z M344.4,49.9c-2.1,0-3.8,1.7-3.8,3.8v12c0,2.1,1.7,3.8,3.8,3.8s3.8-1.7,3.8-3.8v-12
			C348.2,51.6,346.5,49.9,344.4,49.9z"/>
		<path fill="#FFFFFF" d="M453.1,73.4c-1.1,0-2-0.9-2-2V48c0-1.1,0.9-2,2-2s2,0.9,2,2v23.5C455.1,72.5,454.2,73.4,453.1,73.4z"/>
		<path fill="#FFFFFF" d="M431.1,73.4c-4.2,0-7.7-3.5-7.7-7.7v-12c0-4.2,3.5-7.7,7.7-7.7c4.2,0,7.7,3.5,7.7,7.7v12
			C438.8,69.9,435.3,73.4,431.1,73.4z M431.1,49.9c-2.1,0-3.8,1.7-3.8,3.8v12c0,2.1,1.7,3.8,3.8,3.8c2.1,0,3.8-1.7,3.8-3.8v-12
			C434.9,51.6,433.2,49.9,431.1,49.9z"/>
		<path fill="#FFFFFF" d="M316.6,108.6c-1.1,0-2-0.9-2-2V83.2c0-1.1,0.9-2,2-2c1.1,0,2,0.9,2,2v23.5
			C318.5,107.7,317.7,108.6,316.6,108.6z"/>
		<path fill="#FFFFFF" d="M360.7,108.6c-1.1,0-2-0.9-2-2V83.2c0-1.1,0.9-2,2-2c1.1,0,2,0.9,2,2v23.5
			C362.6,107.7,361.7,108.6,360.7,108.6z"/>
		<path fill="#FFFFFF" d="M338.6,108.6c-4.2,0-7.7-3.5-7.7-7.7v-12c0-4.2,3.5-7.7,7.7-7.7s7.7,3.5,7.7,7.7v12
			C346.3,105.1,342.9,108.6,338.6,108.6z M338.6,85.1c-2.1,0-3.8,1.7-3.8,3.8v12c0,2.1,1.7,3.8,3.8,3.8s3.8-1.7,3.8-3.8v-12
			C342.4,86.8,340.7,85.1,338.6,85.1z"/>
		<path fill="#FFFFFF" d="M404.7,108.6c-4.2,0-7.7-3.5-7.7-7.7v-12c0-4.2,3.5-7.7,7.7-7.7c4.2,0,7.7,3.5,7.7,7.7v12
			C412.4,105.1,409,108.6,404.7,108.6z M404.7,85.1c-2.1,0-3.8,1.7-3.8,3.8v12c0,2.1,1.7,3.8,3.8,3.8s3.8-1.7,3.8-3.8v-12
			C408.5,86.8,406.8,85.1,404.7,85.1z"/>
		<path fill="#FFFFFF" d="M382.7,108.6c-4.2,0-7.7-3.5-7.7-7.7v-12c0-4.2,3.5-7.7,7.7-7.7c4.2,0,7.7,3.5,7.7,7.7v12
			C390.4,105.1,386.9,108.6,382.7,108.6z M382.7,85.1c-2.1,0-3.8,1.7-3.8,3.8v12c0,2.1,1.7,3.8,3.8,3.8s3.8-1.7,3.8-3.8v-12
			C386.5,86.8,384.8,85.1,382.7,85.1z"/>
	</g>
	<g>
		<path fill="#FFFFFF" d="M32.4,81.4c-0.3,0.6-0.3,1.4,0.1,2c0.4,0.6,1,1,1.8,1h32.2c4.3,7.4,12.3,12.4,21.4,12.4
			c13.6,0,24.7-11.1,24.7-24.7c0-11.5-7.9-21.2-18.6-23.9V24.7c0-1.1-0.9-2.1-2.1-2.1H46.6c-1.1,0-2.1,0.9-2.1,2.1v32.5L32.4,81.4z
			 M37.6,80.3l19.3-38.7l9.3,18.5c-2,3.5-3.1,7.6-3.1,11.9c0,2.9,0.5,5.7,1.4,8.2H37.6z M108.4,72.1c0,11.4-9.2,20.6-20.6,20.6
			s-20.6-9.2-20.6-20.6s9.2-20.6,20.6-20.6S108.4,60.7,108.4,72.1z M48.7,26.7h41.2v20.7c-0.7-0.1-1.4-0.1-2.1-0.1
			c-7.6,0-14.5,3.5-19,8.9L58.7,36.1c-0.7-1.4-3-1.4-3.7,0l-6.4,12.8V26.7z"/>
		<path fill="#FFFFFF" d="M137.3,10.2H9.5c-1.1,0-2.1,0.9-2.1,2.1v94.8c0,1.1,0.9,2.1,2.1,2.1h127.8c1.1,0,2.1-0.9,2.1-2.1V12.3
			C139.3,11.1,138.4,10.2,137.3,10.2z M135.2,105H11.6V14.3h123.7V105z"/>
		<path fill="#FFFFFF" d="M103.3,35h13.7c0.9,2.4,3.1,4.1,5.8,4.1c3.4,0,6.2-2.8,6.2-6.2s-2.8-6.2-6.2-6.2c-2.7,0-5,1.7-5.8,4.1
			h-14.8c-0.7,0-1.3,0.3-1.7,0.9l-4.1,6.2l3.4,2.3L103.3,35z M122.9,30.8c1.1,0,2.1,0.9,2.1,2.1S124,35,122.9,35
			c-1.1,0-2.1-0.9-2.1-2.1S121.7,30.8,122.9,30.8z"/>
		<path fill="#FFFFFF" d="M23.9,100.9c2.7,0,5-1.7,5.8-4.1h14.8c1.1,0,2.1-0.9,2.1-2.1v-6.2h-4.1v4.1H29.7c-0.9-2.4-3.1-4.1-5.8-4.1
			c-3.4,0-6.2,2.8-6.2,6.2S20.5,100.9,23.9,100.9z M23.9,92.7c1.1,0,2.1,0.9,2.1,2.1s-0.9,2.1-2.1,2.1c-1.1,0-2.1-0.9-2.1-2.1
			S22.8,92.7,23.9,92.7z"/>
		<path fill="#FFFFFF" d="M122.6,77.3c-0.4-0.7-1.1-1.1-1.8-1.1h-6.2v4.1h4.9l2.5,4.9c-1.9,1-3.2,3.1-3.2,5.4c0,3.4,2.8,6.2,6.2,6.2
			c3.4,0,6.2-2.8,6.2-6.2c0-2.9-2.1-5.4-4.8-6L122.6,77.3z M124.9,92.7c-1.1,0-2.1-0.9-2.1-2.1c0-1.1,0.9-2.1,2.1-2.1
			c1.1,0,2.1,0.9,2.1,2.1C127,91.7,126.1,92.7,124.9,92.7z"/>
		<rect x="17.7" y="22.6" fill="#FFFFFF" width="12.4" height="4.1"/>
		<rect x="17.7" y="30.8" fill="#FFFFFF" width="18.6" height="4.1"/>
	</g>
</g>
</svg>
